<svg xmlns="http://www.w3.org/2000/svg" viewBox="0 0 228 228"><title>coast-228</title><rect width="228" height="228" style="fill:#091417"/><path d="M169.27437,144.811c-6.80968,0-15.51715-.93494-22.43847-8.24-3.6909-3.90022-26.8829-30.579-32.83091-37.4271-5.948,6.84806-29.14,33.52688-32.83091,37.4271-6.92132,7.30506-15.62878,8.24-22.43847,8.24-1.68149,0-3.2967-.06279-4.79678-.11861l-1.692-.06279-.41514-.07675a5.08882,5.08882,0,0,1-2.9897-1.35705,3.28161,3.28161,0,0,1-.51631-3.85836c.58259-.85819,1.50706-1.03959,3.349-1.39543,2.95133-.57213,7.88765-1.528,11.38669-5.027,2.16989-2.16989,13.91241-15.52064,23.349-26.25147C91.70258,100.64925,96.45749,95.242,98.882,92.53484l.56166-.63143c3.82347-4.284,7.77253-8.71444,13.93334-8.71444h1.25588c6.16081,0,10.10987,4.43048,13.93334,8.71444l.56166.63143c2.42455,2.70713,7.17947,8.11441,12.47163,14.1287,9.43658,10.73083,21.17909,24.08158,23.349,26.25147,3.499,3.499,8.43536,4.4549,11.38669,5.027,1.842.35583,2.76643.53724,3.34554,1.38845a3.34317,3.34317,0,0,1-.7326,4.06069,4.84636,4.84636,0,0,1-2.76992,1.16169l-.54771.08373-1.5559.05582C172.57107,144.74824,170.95586,144.811,169.27437,144.811Z" style="fill:#f7f7f7"/></svg>