<svg xmlns="http://www.w3.org/2000/svg" viewBox="0 0 96 96"><title>favicon-96</title><path d="M76.17341,63.70442c-3.4709,0-7.90911-.47654-11.43691-4.19994-1.88126-1.98795-13.70225-15.58617-16.734-19.07664-3.03171,3.49046-14.85269,17.08869-16.734,19.07664-3.5278,3.7234-7.966,4.19994-11.43691,4.19994-.85706,0-1.68033-.032-2.44492-.06046l-.86239-.032-.2116-.03912a2.59378,2.59378,0,0,1-1.52385-.69169,1.67264,1.67264,0,0,1-.26316-1.96661c.29695-.43742.76815-.52988,1.707-.71125,1.5043-.29161,4.02035-.77882,5.80381-2.56228,1.106-1.106,7.09117-7.91089,11.901-13.38041,2.69742-3.06549,5.121-5.82159,6.3568-7.20141l.28628-.32184c1.94883-2.18354,3.96167-4.44176,7.10184-4.44176h.64013c3.14017,0,5.153,2.25822,7.10184,4.44176l.28628.32184c1.2358,1.37983,3.65939,4.13592,6.3568,7.20141,4.80983,5.46952,10.795,12.27441,11.901,13.38041,1.78346,1.78346,4.29951,2.27067,5.80381,2.56228.93885.18137,1.41005.27383,1.70522.70769a1.704,1.704,0,0,1-.37341,2.06974,2.4702,2.4702,0,0,1-1.41183.59212l-.27917.04268-.793.02845C77.85374,63.67241,77.03047,63.70442,76.17341,63.70442Z" style="fill:#091417"/><path d="M48,7.8A40.2,40.2,0,0,1,76.4257,76.4257,40.2,40.2,0,0,1,19.5743,19.5743,39.937,39.937,0,0,1,48,7.8M48,0A48,48,0,1,0,96,48,48,48,0,0,0,48,0Z"/></svg>