<svg xmlns="http://www.w3.org/2000/svg" viewBox="0 0 16 16"><title>favicon-16</title><path d="M12.69557,10.6174a2.46675,2.46675,0,0,1-1.90615-.7c-.31354-.33132-2.28371-2.5977-2.789-3.17944-.50528.58174-2.47545,2.84811-2.789,3.17944a2.46675,2.46675,0,0,1-1.90615.7c-.14284,0-.28005-.00533-.40749-.01008L2.75406,10.602l-.03527-.00652a.4323.4323,0,0,1-.254-.11528.27877.27877,0,0,1-.04386-.32777c.04949-.0729.128-.08831.2845-.11854a1.80753,1.80753,0,0,0,.9673-.427c.18433-.18433,1.18186-1.31848,1.9835-2.23007.44957-.51092.8535-.97026,1.05947-1.20024l.04771-.05364A1.64725,1.64725,0,0,1,7.94708,5.3826h.10669a1.64725,1.64725,0,0,1,1.18364.74029l.04771.05364c.206.23.6099.68932,1.05947,1.20024.80164.91159,1.79917,2.04574,1.9835,2.23007a1.80753,1.80753,0,0,0,.9673.427c.15648.03023.235.04564.2842.11795a.284.284,0,0,1-.06223.345.4117.4117,0,0,1-.23531.09869l-.04653.00711-.13217.00474C12.97562,10.61207,12.83841,10.6174,12.69557,10.6174Z" style="fill:#091417"/><path d="M8,1.3a6.7,6.7,0,0,1,4.73762,11.43762A6.7,6.7,0,0,1,3.26238,3.26238,6.65616,6.65616,0,0,1,8,1.3M8,0a8,8,0,1,0,8,8A8,8,0,0,0,8,0Z"/></svg>