<svg xmlns="http://www.w3.org/2000/svg" viewBox="0 0 32 32"><title>favicon-32</title><path d="M25.39114,21.23481a4.9335,4.9335,0,0,1-3.8123-1.4c-.62709-.66265-4.56742-5.19539-5.578-6.35888-1.01057,1.16349-4.9509,5.69623-5.578,6.35888a4.9335,4.9335,0,0,1-3.8123,1.4c-.28569,0-.56011-.01067-.815-.02015L5.50812,21.204l-.07053-.013a.86459.86459,0,0,1-.508-.23056.55755.55755,0,0,1-.08772-.65554c.099-.14581.25605-.17663.569-.23708a3.61507,3.61507,0,0,0,1.9346-.85409c.36866-.36866,2.36372-2.637,3.967-4.46014.89914-1.02183,1.707-1.94053,2.11893-2.40047l.09543-.10728a3.2945,3.2945,0,0,1,2.36728-1.48059h.21338a3.2945,3.2945,0,0,1,2.36728,1.48059l.09543.10728c.41193.45994,1.2198,1.37864,2.11893,2.40047,1.60328,1.82317,3.59834,4.09147,3.967,4.46014a3.61507,3.61507,0,0,0,1.9346.85409c.313.06046.47.09128.56841.2359a.568.568,0,0,1-.12447.68991.8234.8234,0,0,1-.47061.19737l-.09306.01423-.26435.00948C25.95125,21.22414,25.67682,21.23481,25.39114,21.23481Z" style="fill:#091417"/><path d="M16,2.6a13.4,13.4,0,0,1,9.47523,22.87523A13.4,13.4,0,0,1,6.52477,6.52477,13.31232,13.31232,0,0,1,16,2.6M16,0A16,16,0,1,0,32,16,16,16,0,0,0,16,0Z"/></svg>