<svg xmlns="http://www.w3.org/2000/svg" viewBox="0 0 512 512"><title>manifest-512</title><path d="M380.1249,325.18968c-15.29192,0-34.84553-2.09951-50.38814-18.50385-8.28835-8.75839-60.36862-68.66872-73.72556-84.04682-13.35693,15.3781-65.43721,75.28843-73.72556,84.04682-15.54261,16.40435-35.09622,18.50385-50.38814,18.50385-3.776,0-7.40311-.141-10.77172-.26636l-3.79948-.141-.93224-.17235a11.42754,11.42754,0,0,1-6.71372-3.04742c-1.77831-1.26127-3.01608-5.89115-1.15943-8.66438,1.30827-1.92716,3.38428-2.33453,7.52062-3.13359,6.62754-1.28477,17.71262-3.43128,25.5701-11.28876,4.87273-4.87273,31.2419-34.85336,52.43281-58.95068,11.88414-13.50578,22.56185-25.64844,28.00647-31.72761l1.26127-1.41795c8.586-9.62012,17.4541-19.56927,31.2889-19.56927h2.82023c13.8348,0,22.70286,9.94915,31.2889,19.56927l1.26127,1.41795c5.44461,6.07917,16.12232,18.22183,28.00647,31.72761,21.19091,24.09731,47.56007,54.07794,52.43281,58.95068,7.85748,7.85748,18.94256,10.004,25.5701,11.28876,4.13634.79907,6.21234,1.20643,7.51278,3.11792,1.86449,2.7889.62672,7.41878-1.64514,9.11875-1.6138,1.76264-4.27735,2.25619-6.22018,2.60871l-1.22993.188-3.494.12534C387.528,325.04867,383.90087,325.18968,380.1249,325.18968Z" style="fill:#f7f7f7"/></svg>