<svg xmlns="http://www.w3.org/2000/svg" viewBox="0 0 70 70"><title>metro-70</title><rect width="70" height="70" style="fill:#091417"/><path d="M51.9702,44.45953a8.91506,8.91506,0,0,1-6.889-2.52982c-1.13317-1.19744-8.25352-9.3883-10.07967-11.49078C33.17539,32.5414,26.055,40.73227,24.92187,41.9297a8.91506,8.91506,0,0,1-6.889,2.52982c-.51625,0-1.01214-.01928-1.4727-.03642l-.51946-.01928-.12746-.02356a1.56236,1.56236,0,0,1-.91789-.41664,1.00751,1.00751,0,0,1-.15852-1.18458c.17887-.26348.46269-.31917,1.02821-.42842A6.53259,6.53259,0,0,0,19.361,40.80724c.66619-.66619,4.27135-4.76511,7.16855-8.05966,1.62479-1.84649,3.08463-3.50662,3.829-4.33776L30.531,28.216c1.17387-1.31525,2.3863-2.67549,4.27778-2.67549h.38558c1.89148,0,3.10391,1.36024,4.27778,2.67549l.17244.19386c.74438.83114,2.20422,2.49127,3.829,4.33776,2.89719,3.29455,6.50235,7.39347,7.16855,8.05966A6.53259,6.53259,0,0,0,54.138,42.35063c.56552.10925.84934.16494,1.02714.42628a1.02641,1.02641,0,0,1-.22492,1.2467,1.48792,1.48792,0,0,1-.85041.35666l-.16816.02571-.47769.01714C52.98234,44.44025,52.48645,44.45953,51.9702,44.45953Z" style="fill:#f7f7f7"/></svg>