<svg xmlns="http://www.w3.org/2000/svg" viewBox="0 0 311 311"><title>metro-310</title><rect x="0.5" y="0.5" width="310" height="310" style="fill:#091417"/><path d="M230.65375,197.39219c-9.25878,0-21.09788-1.27119-30.50844-11.2035-5.01834-5.30293-36.55132-41.57677-44.63852-50.88772-8.0872,9.311-39.62018,45.58479-44.63852,50.88772-9.41056,9.93232-21.24966,11.2035-30.50844,11.2035-2.28624,0-4.48235-.08538-6.52194-.16127l-2.30047-.08538-.56444-.10435a6.919,6.919,0,0,1-4.06495-1.84512,4.46184,4.46184,0,0,1-.702-5.246c.79212-1.16683,2.04907-1.41348,4.5535-1.89729,4.01277-.77789,10.72444-2.07753,15.4819-6.835,2.95029-2.95029,18.916-21.10262,31.74643-35.69279,7.19548-8.17733,13.6605-15.52933,16.957-19.21007l.76366-.85852c5.19858-5.82468,10.56791-11.84858,18.94445-11.84858h1.70756c8.37654,0,13.74588,6.0239,18.94445,11.84858l.76366.85852c3.29654,3.68075,9.76156,11.03275,16.957,19.21007,12.83043,14.59017,28.79614,32.7425,31.74643,35.69279,4.75746,4.75746,11.46913,6.0571,15.4819,6.835,2.50442.48381,3.76138.73046,4.54876,1.8878a4.54554,4.54554,0,0,1-.99608,5.52112,6.58935,6.58935,0,0,1-3.76612,1.57949l-.74469.11384-2.11548.07589C235.1361,197.30681,232.94,197.39219,230.65375,197.39219Z" style="fill:#f7f7f7"/></svg>