<svg xmlns="http://www.w3.org/2000/svg" viewBox="0 0 310 150"><title>metro-310x150</title><rect y="0.5" width="310" height="149.5" style="fill:#091417"/><path d="M201.54684,100.94613c-5.73447,0-13.06707-.78731-18.89555-6.93894-3.10813-3.28439-22.63823-25.75077-27.64708-31.51756-5.00885,5.76679-24.539,28.23316-27.64708,31.51756-5.82848,6.15163-13.16108,6.93894-18.89555,6.93894-1.416,0-2.77617-.05288-4.03939-.09988l-1.4248-.05288-.34959-.06463a4.28533,4.28533,0,0,1-2.51764-1.14278,2.76346,2.76346,0,0,1-.43479-3.24914c.4906-.72268,1.2691-.87545,2.82023-1.1751,2.48533-.48179,6.64223-1.28673,9.58879-4.23329,1.82728-1.82728,11.71571-13.07,19.6623-22.1065,4.45655-5.06467,8.46069-9.61816,10.50243-11.89785l.473-.53173c3.21976-3.60755,6.54529-7.33848,11.73334-7.33848H155.533c5.18805,0,8.51357,3.73093,11.73334,7.33848l.473.53173c2.04173,2.27969,6.04587,6.83319,10.50243,11.89785,7.94659,9.03649,17.835,20.27923,19.6623,22.1065,2.94655,2.94655,7.10346,3.7515,9.58879,4.23329,1.55113.29965,2.32963.45241,2.81729,1.16922a2.8153,2.8153,0,0,1-.61693,3.41953,4.08115,4.08115,0,0,1-2.33257.97827l-.46123.07051-1.31023.047C204.323,100.89325,202.96283,100.94613,201.54684,100.94613Z" style="fill:#f7f7f7"/></svg>