<svg xmlns="http://www.w3.org/2000/svg" viewBox="0 0 270 270"><title>metro-270</title><rect width="270" height="270" style="fill:#091417"/><path d="M200.45649,171.48675c-8.0641,0-18.37557-1.10716-26.57187-9.75789-4.37081-4.61868-31.835-36.212-38.87871-44.32156-7.04369,8.10954-34.5079,39.70288-38.87871,44.32156-8.1963,8.65073-18.50777,9.75789-26.57187,9.75789-1.99124,0-3.904-.07436-5.6804-.14046l-2.00363-.07436-.49161-.09089a6.02624,6.02624,0,0,1-3.54044-1.607,3.88612,3.88612,0,0,1-.61142-4.56911c.68991-1.01627,1.78468-1.2311,3.966-1.65248,3.495-.67752,9.34064-1.80947,13.48423-5.95306,2.56961-2.56961,16.47522-18.3797,27.65011-31.08727,6.267-7.12219,11.89785-13.52554,14.769-16.73135l.66512-.74775c4.52779-5.07311,9.20431-10.31973,16.5-10.31973h1.48723c7.2957,0,11.97221,5.24662,16.5,10.31973l.66512.74775c2.87118,3.20581,8.502,9.60917,14.769,16.73135,11.17489,12.70757,25.08051,28.51766,27.65011,31.08727,4.14359,4.14359,9.98924,5.27554,13.48423,5.95306,2.18127.42138,3.276.6362,3.96182,1.64422a3.959,3.959,0,0,1-.86755,4.80872,5.73911,5.73911,0,0,1-3.28017,1.37569l-.6486.09915-1.84251.0661C204.36047,171.41239,202.44773,171.48675,200.45649,171.48675Z" style="fill:#f7f7f7"/></svg>