<svg xmlns="http://www.w3.org/2000/svg" viewBox="0 0 640 1136"><title>startup-640x1136</title><rect width="640" height="1136" style="fill:#091417"/><path d="M435.7117,953c-14.25543,0-32.4837-1.9572-46.97283-17.24966-7.72656-8.16474-56.27683-64.01435-68.72843-78.35012-12.4516,14.33577-61.00187,70.18538-68.72843,78.35012C236.79288,951.0428,218.56462,953,204.30919,953c-3.52,0-6.90132-.13145-10.04161-.2483l-3.54195-.13145-.86906-.16067a10.653,10.653,0,0,1-6.25866-2.84086c-1.65778-1.17578-2.81165-5.49185-1.08084-8.07711,1.2196-1.79654,3.15489-2.17629,7.01087-2.9212,6.17833-1.19769,16.51206-3.19871,23.837-10.52361,4.54246-4.54246,29.12432-32.491,48.87891-54.955,11.07863-12.59035,21.03261-23.91,26.10819-29.57711l1.17578-1.32184C297.53184,833.2748,305.79883,824,318.69591,824H321.325c12.89708,0,21.16406,9.2748,29.16814,18.24287l1.17578,1.32184c5.07558,5.66712,15.02955,16.98675,26.10819,29.57711,19.75459,22.464,44.33645,50.41253,48.87891,54.955,7.3249,7.3249,17.65863,9.32592,23.837,10.52361,3.856.7449,5.79127,1.12466,7.00357,2.90659,1.73811,2.59986.58424,6.91593-1.53363,8.50068-1.50442,1.64317-3.98743,2.10326-5.79857,2.4319l-1.14657.17527-3.25713.11685C442.613,952.86855,439.23174,953,435.7117,953Z" style="fill:#f7f7f7"/></svg>