<svg xmlns="http://www.w3.org/2000/svg" viewBox="0 0 2048 2732"><title>startup-2048x2732</title><rect width="2048" height="2732" style="fill:#091417"/><path d="M1243.70652,1945.93755c-27.06737,0-61.67811-3.71622-89.18922-32.75263-14.67074-15.50273-106.85512-121.54665-130.49747-148.76656-23.64235,27.21991-115.82673,133.26383-130.49747,148.76656-27.5111,29.03642-62.12184,32.75263-89.18922,32.75263-6.68364,0-13.10383-.2496-19.06641-.47146l-6.72524-.2496-1.65011-.30506c-3.43889-.624-8.15349-1.49758-11.88358-5.39406-3.14769-2.2325-5.3386-10.4276-2.05224-15.33633,2.3157-3.41116,5.99032-4.13221,13.31182-5.54659,11.731-2.2741,31.35212-6.07352,45.2602-19.9816,8.625-8.625,55.29953-61.692,92.80837-104.34528,21.03545-23.90582,39.93547-45.39887,49.57268-56.15926l2.2325-2.50983C981.3388,1718.61043,997.03566,1701,1021.52387,1701h4.99193c24.48821,0,40.18507,17.61043,55.38273,34.63847l2.2325,2.50983c9.63721,10.76039,28.53722,32.25344,49.57268,56.15926,37.50884,42.6533,84.18342,95.72033,92.80837,104.34528,13.90808,13.90808,33.52916,17.7075,45.2602,19.9816,7.3215,1.41438,10.99612,2.13544,13.298,5.51886,3.30022,4.93647,1.10932,13.13156-2.912,16.14059-2.8565,3.12-7.5711,3.99355-11.01,4.61754l-2.177.33279-6.18445.22186C1256.81034,1945.688,1250.39016,1945.93755,1243.70652,1945.93755Z" style="fill:#f7f7f7"/></svg>