<svg xmlns="http://www.w3.org/2000/svg" viewBox="0 0 750 1294"><title>startup-750x1294</title><rect width="750" height="1294" style="fill:#091417"/><path d="M501.69085,1094.24c-15.608,0-35.56587-2.14291-51.42978-18.88637-8.45969-8.93944-61.61659-70.08827-75.24964-85.78427-13.633,15.696-66.79,76.84482-75.24964,85.78427C283.89789,1092.09709,263.94006,1094.24,248.332,1094.24c-3.854,0-7.55615-.14393-10.99439-.27186l-3.878-.14393-.95151-.17591c-1.983-.35982-4.7016-.86356-6.85251-3.11042-1.81507-1.28734-3.07843-6.01293-1.1834-8.84349,1.33532-1.967,3.45424-2.38279,7.67609-3.19837,6.76455-1.31133,18.07878-3.50221,26.09869-11.52213,4.97346-4.97346,31.88774-35.57386,53.51672-60.16933,12.12982-13.785,23.02826-26.17865,28.58543-32.38349l1.28734-1.44726C350.4,963.15482,359.45137,953,373.57217,953h2.87853c14.1208,0,23.17219,10.15482,31.93572,19.97382l1.28734,1.44726c5.55717,6.20484,16.45561,18.59852,28.58543,32.38349,21.629,24.59546,48.54325,55.19586,53.51672,60.16933,8.01991,8.01991,19.33414,10.21079,26.09869,11.52213,4.22185.81558,6.34077,1.23137,7.66809,3.18238,1.903,2.84655.63967,7.57214-1.67914,9.30725-1.64716,1.79908-4.36577,2.30283-6.34876,2.66264l-1.25536.1919-3.56618.12793C509.247,1094.09607,505.54489,1094.24,501.69085,1094.24Z" style="fill:#f7f7f7"/></svg>