<svg xmlns="http://www.w3.org/2000/svg" viewBox="0 0 1536 2048"><title>startup-1536x2048</title><rect width="1536" height="2048" style="fill:#091417"/><path d="M946.94066,1669.49015c-22.04511,0-50.23393-3.02669-72.64044-26.67548-11.94863-12.62625-87.02848-98.99405-106.28407-121.16339-19.25559,22.16934-94.33544,108.53714-106.28407,121.16339-22.4065,23.6488-50.59533,26.67548-72.64044,26.67548-5.44352,0-10.67245-.20329-15.5287-.384l-5.4774-.20329-1.34394-.24846c-2.80081-.50821-6.64064-1.21971-9.67862-4.39321-2.56365-1.81827-4.348-8.49279-1.67145-12.49072,1.886-2.77823,4.87884-3.36549,10.84186-4.51744,9.55439-1.85215,25.53483-4.9466,36.86231-16.27408,7.02462-7.02462,45.03888-50.24523,75.58807-84.98434,17.13239-19.47017,32.52557-36.97525,40.37462-45.73908l1.81827-2.04414C733.25445,1484.34287,746.03881,1470,765.9833,1470h4.0657c19.9445,0,32.72885,14.34287,45.10664,28.21141l1.81827,2.04414c7.84905,8.76383,23.24223,26.26891,40.37462,45.73908,30.54919,34.73911,68.56345,77.95972,75.58807,84.98434,11.32748,11.32748,27.30793,14.42193,36.86231,16.27408,5.963,1.15195,8.95583,1.73922,10.83056,4.49485,2.68788,4.02052.90349,10.695-2.37166,13.14575-2.32648,2.54106-6.16631,3.25256-8.96712,3.76077l-1.7731.271-5.03695.1807C957.61311,1669.28687,952.38418,1669.49015,946.94066,1669.49015Z" style="fill:#f7f7f7"/></svg>