<svg xmlns="http://www.w3.org/2000/svg" viewBox="0 0 152 152"><title>touch-152</title><rect width="152" height="152" style="fill:#091417"/><path d="M112.84958,96.54069c-4.53979,0-10.34477-.62329-14.959-5.49333C95.43,88.44721,79.96866,70.66133,76.00333,66.096,72.038,70.66133,56.57666,88.44721,54.11605,91.04736c-4.61421,4.87-10.41919,5.49333-14.959,5.49333-1.121,0-2.1978-.04186-3.19785-.07907l-1.128-.04186-.27676-.05117a3.39255,3.39255,0,0,1-1.99314-.9047,2.18774,2.18774,0,0,1-.34421-2.57224c.38839-.57213,1.00471-.69306,2.23268-.93028,1.96755-.38142,5.25843-1.01866,7.59112-3.35135,1.44659-1.44659,9.27494-10.34709,15.566-17.501,3.5281-4.00953,6.69805-7.61438,8.31442-9.41913l.37444-.421c2.549-2.856,5.18169-5.80963,9.28889-5.80963H76.422c4.10721,0,6.73991,2.95365,9.28889,5.80963l.37444.421c1.61637,1.80475,4.78631,5.40961,8.31442,9.41913,6.29105,7.15389,14.1194,16.05439,15.566,17.501,2.33269,2.33269,5.62357,2.96993,7.59112,3.35135,1.228.23722,1.84429.35816,2.23036.92563a2.22878,2.22878,0,0,1-.4884,2.70713,3.23091,3.23091,0,0,1-1.84662.77446l-.36514.05582-1.03727.03721C115.04738,96.49882,113.97057,96.54069,112.84958,96.54069Z" style="fill:#f7f7f7"/></svg>