<svg xmlns="http://www.w3.org/2000/svg" viewBox="0 0 180 180"><title>touch-180</title><rect width="180" height="180" style="fill:#091417"/><path d="M133.63766,114.3245c-5.37607,0-12.25038-.73811-17.71458-6.50526-2.91387-3.07912-21.22334-24.14135-25.91914-29.54771-4.6958,5.40636-23.00527,26.46859-25.91914,29.54771-5.4642,5.76715-12.33851,6.50526-17.71458,6.50526-1.32749,0-2.60266-.04957-3.78693-.09364l-1.33575-.04957-.32774-.06059a4.01749,4.01749,0,0,1-2.36029-1.07136,2.59074,2.59074,0,0,1-.40761-3.04607c.45994-.67752,1.18979-.82073,2.644-1.10165,2.33-.45168,6.22709-1.20631,8.98949-3.9687,1.71307-1.71307,10.98348-12.25314,18.43341-20.72485,4.178-4.74812,7.9319-9.017,9.846-11.15424l.44342-.4985c3.01853-3.38207,6.13621-6.87982,11-6.87982h.99149c4.8638,0,7.98148,3.49775,11,6.87982l.44342.4985c1.91412,2.13721,5.668,6.40611,9.846,11.15424,7.44993,8.47171,16.72034,19.01178,18.43341,20.72485,2.76239,2.76239,6.65949,3.517,8.98949,3.9687,1.45418.28092,2.184.42414,2.64121,1.09614a2.63935,2.63935,0,0,1-.57837,3.20581,3.82608,3.82608,0,0,1-2.18678.91713l-.4324.0661-1.22834.04407C136.24031,114.27492,134.96515,114.3245,133.63766,114.3245Z" style="fill:#f7f7f7"/></svg>