<svg xmlns="http://www.w3.org/2000/svg" viewBox="0 0 167 167"><title>touch-167</title><rect width="167" height="167" style="fill:#091417"/><path d="M123.98605,106.06773c-4.9878,0-11.36563-.6848-16.43519-6.03544-2.70343-2.85674-19.69055-22.39781-24.0472-27.41371-4.35666,5.0159-21.34378,24.557-24.0472,27.41371-5.06956,5.35064-11.4474,6.03544-16.43519,6.03544-1.23162,0-2.41469-.046-3.51343-.08688l-1.23928-.046-.30407-.05621a3.72734,3.72734,0,0,1-2.18983-.994,2.40364,2.40364,0,0,1-.37817-2.82608c.42672-.62858,1.10386-.76146,2.453-1.02209,2.16172-.41906,5.77736-1.11919,8.34025-3.68208C47.77908,95.76507,56.38,85.98623,63.29184,78.12637c3.87627-4.4052,7.359-8.3658,9.13492-10.34865l.41139-.4625c2.80052-3.13781,5.693-6.38295,10.20556-6.38295h.91988c4.51252,0,7.405,3.24513,10.20556,6.38295l.41139.4625c1.77588,1.98285,5.25865,5.94345,9.13492,10.34865,6.91188,7.85987,15.51276,17.6387,17.10211,19.22805,2.56289,2.56289,6.17853,3.263,8.34025,3.68208,1.34916.26063,2.02629.3935,2.45046,1.017a2.44873,2.44873,0,0,1-.5366,2.97428,3.54975,3.54975,0,0,1-2.02885.85089l-.40117.06133-1.13963.04088C126.40074,106.02173,125.21767,106.06773,123.98605,106.06773Z" style="fill:#f7f7f7"/></svg>