<svg xmlns="http://www.w3.org/2000/svg" viewBox="0 0 120 120"><title>touch-120</title><rect width="120" height="120" style="fill:#091417"/><path d="M89.09177,76.21633c-3.584,0-8.16692-.49207-11.80972-4.33684C75.33947,69.82674,63.13316,55.78526,60.00263,52.181,56.8721,55.78526,44.66578,69.82674,42.7232,71.87949c-3.6428,3.84477-8.22568,4.33684-11.80972,4.33684-.885,0-1.7351-.033-2.52462-.06243l-.8905-.033-.21849-.04039a2.67833,2.67833,0,0,1-1.57353-.71424,1.72716,1.72716,0,0,1-.27174-2.03071c.30663-.45168.79319-.54715,1.76264-.73444,1.55333-.30112,4.1514-.80421,5.993-2.6458,1.142-1.142,7.32232-8.16876,12.28894-13.81656,2.78535-3.16542,5.28793-6.01135,6.564-7.43616l.29561-.33233c2.01235-2.25472,4.0908-4.58655,7.33334-4.58655h.661c3.24253,0,5.321,2.33183,7.33334,4.58655l.29561.33233c1.27608,1.4248,3.77867,4.27074,6.564,7.43616C79.4927,61.78651,85.673,68.81322,86.815,69.95527c1.8416,1.8416,4.43966,2.34468,5.993,2.6458.96945.18728,1.456.28276,1.76081.73076a1.75957,1.75957,0,0,1-.38558,2.13721,2.55072,2.55072,0,0,1-1.45785.61142l-.28827.04407-.8189.02938C90.82688,76.18328,89.97677,76.21633,89.09177,76.21633Z" style="fill:#f7f7f7"/></svg>