<svg xmlns="http://www.w3.org/2000/svg" viewBox="0 0 36 36"><title>Icon</title><path d="M33.05549,26.39223a7.90917,7.90917,0,0,1-6.11173-2.24439c-1.00532-1.06233-7.3223-8.329-8.9424-10.1943-1.6201,1.86526-7.93708,9.132-8.9424,10.1943a7.90918,7.90918,0,0,1-6.11174,2.24439c-.458,0-.89794-.0171-1.30653-.03231l-.46085-.0171-.11308-.0209a1.38606,1.38606,0,0,1-.81432-.36964.89382.89382,0,0,1-.14063-1.05092c.15868-.23376.41049-.28317.9122-.38009A5.7955,5.7955,0,0,0,4.12548,23.152c.591-.591,3.78943-4.22747,6.35974-7.15031,1.44146-1.63815,2.7366-3.111,3.397-3.84834l.153-.172c1.04143-1.16686,2.11707-2.37362,3.79513-2.37362h.34208c1.67806,0,2.7537,1.20676,3.79512,2.37362l.153.172c.66039.73737,1.95552,2.21019,3.397,3.84834,2.57031,2.92284,5.76871,6.55928,6.35974,7.15031a5.79546,5.79546,0,0,0,3.10147,1.36925c.50171.09692.75352.14633.91125.37819a.9106.9106,0,0,1-.19954,1.106,1.3201,1.3201,0,0,1-.75447.31642l-.14918.0228-.42379.0152C33.95344,26.37513,33.51349,26.39223,33.05549,26.39223Z" style="fill:#091417"/></svg>